# xmcd
#
# Track frame offsets: 
#        150
#        19950
#        37425
#        70350
#        87675
#        106425
#        130050
#        159000
#        187125
#        225975
#        257250
#        294075
#        328725
#
# Disc length: 4779 seconds
#
# Revision: 0
# Processed by: cddbd v1.5.1PL0 Copyright (c) Steve Scherf et al.
# Submitted via: ExactAudioCopy v0.95a3
#
DISCID=b412a90d
DTITLE=Prince - The Work Vol 8 [CD1]
DYEAR=1900
DGENRE=
TTITLE0=Sweet Thing
TTITLE1=Wouldn't You Love To Love Me
TTITLE2=I Spend My Time Loving You
TTITLE3=Rock Me, Lover
TTITLE4=Nightingale
TTITLE5=Instrumental #1
TTITLE6=Instrumental #2
TTITLE7=Instrumental #3
TTITLE8=Instrumental #4
TTITLE9=Instrumental #5
TTITLE10=Instrumental #6
TTITLE11=Instrumental #7
TTITLE12=Instrumental #8
EXTD=
EXTT0=
EXTT1=
EXTT2=
EXTT3=
EXTT4=
EXTT5=
EXTT6=
EXTT7=
EXTT8=
EXTT9=
EXTT10=
EXTT11=
EXTT12=
PLAYORDER=
